# 3ds Max Wavefront OBJ Exporter v0.97b - (c)2007 guruware
# 创建的文件:05.05.2018 20:38:26

#
# object Cookies1
#

v  0.000018 0.247648 -1.021879
v  0.000018 0.247648 -0.612743
v  0.084718 0.232713 -0.612743
v  0.084718 0.232713 -1.024694
v  0.000018 0.247648 -0.199998
v  0.084718 0.232713 -0.199998
v  0.000018 0.247648 0.212748
v  0.084718 0.232713 0.212748
v  0.000018 0.247648 0.625493
v  0.084718 0.232713 0.625493
v  0.000018 0.247648 1.091162
v  0.080922 0.232713 1.065284
v  0.000018 0.198119 1.086092
v  0.067778 0.186171 1.088891
v  0.000018 0.198119 0.625493
v  0.067778 0.186171 0.625493
v  0.000018 0.198119 0.212748
v  0.067778 0.186171 0.212748
v  0.000018 0.198119 -0.199998
v  0.067778 0.186171 -0.199998
v  0.000018 0.198119 -0.612743
v  0.067778 0.186171 -0.612743
v  0.000018 0.198119 -1.044514
v  0.067778 0.186171 -1.067418
v  0.159202 0.189710 -0.612743
v  0.159202 0.189710 -1.065647
v  0.159202 0.189710 -0.199998
v  0.159202 0.189710 0.212748
v  0.159202 0.189710 0.625493
v  0.159202 0.189710 1.050852
v  0.127365 0.151768 1.078302
v  0.127365 0.151768 0.625493
v  0.127365 0.151768 0.212748
v  0.127365 0.151768 -0.199998
v  0.127365 0.151768 -0.612459
v  0.127365 0.151768 -1.086893
v  0.214486 0.123825 -0.612086
v  0.214486 0.123825 -1.072639
v  0.214486 0.123825 -0.199998
v  0.214486 0.123825 0.212748
v  0.214486 0.123825 0.625493
v  0.214486 0.123825 1.017835
v  0.171593 0.099060 1.065996
v  0.171593 0.099060 0.625493
v  0.171593 0.099060 0.212748
v  0.171593 0.099060 -0.199998
v  0.171593 0.099060 -0.610699
v  0.171593 0.099060 -1.094971
v  0.243903 0.043004 -0.609175
v  0.243903 0.043004 -1.105449
v  0.243903 0.043004 -0.199998
v  0.243903 0.043004 0.212748
v  0.243903 0.043004 0.625493
v  0.243903 0.043004 1.025450
v  0.195126 0.034404 1.061676
v  0.195126 0.034404 0.625493
v  0.195126 0.034404 0.212748
v  0.195126 0.034404 -0.199998
v  0.195126 0.034404 -0.607331
v  0.195126 0.034404 -1.089084
v  0.243903 -0.043003 -0.604658
v  0.243903 -0.043003 -1.086578
v  0.243903 -0.043003 -0.199998
v  0.243903 -0.043003 0.212748
v  0.243903 -0.043003 0.625493
v  0.243903 -0.043003 1.060511
v  0.195126 -0.034402 1.066837
v  0.195126 -0.034402 0.625493
v  0.195126 -0.034402 0.212748
v  0.195126 -0.034402 -0.199998
v  0.195126 -0.034402 -0.603012
v  0.195126 -0.034402 -1.082990
v  0.214486 -0.123823 -0.599954
v  0.214486 -0.123823 -1.065252
v  0.214486 -0.123823 -0.199998
v  0.214486 -0.123823 0.212748
v  0.214486 -0.123823 0.625493
v  0.214486 -0.123823 0.981909
v  0.171593 -0.099058 1.018673
v  0.171593 -0.099058 0.625493
v  0.171593 -0.099058 0.212748
v  0.171593 -0.099058 -0.199998
v  0.171593 -0.099058 -0.599092
v  0.171593 -0.099058 -1.085772
v  0.159202 -0.189708 -0.597368
v  0.159202 -0.189708 -1.083323
v  0.159202 -0.189708 -0.199998
v  0.159202 -0.189708 0.212748
v  0.159202 -0.189708 0.625493
v  0.159202 -0.189708 1.023830
v  0.127365 -0.151766 1.084056
v  0.127365 -0.151766 0.625493
v  0.127365 -0.151766 0.212748
v  0.127365 -0.151766 -0.199998
v  0.127365 -0.151766 -0.597368
v  0.127365 -0.151766 -1.101989
v  0.084718 -0.232712 -0.599954
v  0.084718 -0.232712 -1.091537
v  0.084718 -0.232712 -0.199998
v  0.084718 -0.232712 0.212748
v  0.084718 -0.232712 0.625493
v  0.084718 -0.232712 1.064808
v  0.067778 -0.186169 1.080362
v  0.067778 -0.186169 0.625493
v  0.067778 -0.186169 0.212748
v  0.067778 -0.186169 -0.199998
v  0.067778 -0.186169 -0.599092
v  0.067778 -0.186169 -1.127343
v  0.000018 -0.247646 -0.604658
v  0.000018 -0.247646 -1.122192
v  0.000018 -0.247646 -0.199998
v  0.000018 -0.247646 0.212748
v  0.000018 -0.247646 0.625493
v  0.000018 -0.247646 1.072346
v  0.000018 -0.198117 1.071343
v  0.000018 -0.198117 0.625493
v  0.000018 -0.198117 0.212748
v  0.000018 -0.198117 -0.199998
v  0.000018 -0.198117 -0.603012
v  0.000018 -0.198117 -1.146397
v  -0.084683 -0.232711 -0.609175
v  -0.084683 -0.232711 -1.118654
v  -0.084683 -0.232711 -0.199998
v  -0.084683 -0.232711 0.212748
v  -0.084683 -0.232711 0.625493
v  -0.084683 -0.232712 1.032834
v  -0.067743 -0.186169 1.054050
v  -0.067743 -0.186169 0.625493
v  -0.067743 -0.186169 0.212748
v  -0.067743 -0.186169 -0.199998
v  -0.067743 -0.186169 -0.607331
v  -0.067743 -0.186169 -1.142373
v  -0.159167 -0.189708 -0.612086
v  -0.159167 -0.189708 -1.108288
v  -0.159167 -0.189708 -0.199998
v  -0.159167 -0.189708 0.212748
v  -0.159167 -0.189708 0.625493
v  -0.159167 -0.189708 1.024845
v  -0.127330 -0.151766 1.028749
v  -0.127330 -0.151766 0.625493
v  -0.127330 -0.151766 0.212748
v  -0.127330 -0.151766 -0.199998
v  -0.127330 -0.151766 -0.610699
v  -0.127330 -0.151766 -1.118390
v  -0.214451 -0.123823 -0.612743
v  -0.214451 -0.123823 -1.105717
v  -0.214451 -0.123823 -0.199998
v  -0.214451 -0.123823 0.212748
v  -0.214451 -0.123823 0.625493
v  -0.214451 -0.123823 1.005454
v  -0.171558 -0.099058 1.007073
v  -0.171558 -0.099058 0.625493
v  -0.171558 -0.099058 0.212748
v  -0.171558 -0.099058 -0.199998
v  -0.171558 -0.099058 -0.612459
v  -0.171558 -0.099058 -1.082078
v  -0.243867 -0.043003 -0.612743
v  -0.243867 -0.043003 -1.035555
v  -0.243867 -0.043003 -0.199998
v  -0.243867 -0.043003 0.212748
v  -0.243867 -0.043003 0.625493
v  -0.243867 -0.043003 0.994284
v  -0.195090 -0.034402 0.993478
v  -0.195090 -0.034402 0.625493
v  -0.195090 -0.034402 0.212748
v  -0.195090 -0.034402 -0.199998
v  -0.195090 -0.034402 -0.612743
v  -0.195090 -0.034402 -1.046713
v  -0.243867 0.043004 -0.612743
v  -0.243867 0.043004 -0.994530
v  -0.243867 0.043004 -0.199998
v  -0.243867 0.043004 0.212748
v  -0.243867 0.043004 0.625493
v  -0.243867 0.043004 0.991225
v  -0.195090 0.034404 0.992752
v  -0.195090 0.034404 0.625493
v  -0.195090 0.034404 0.212748
v  -0.195090 0.034404 -0.199998
v  -0.195090 0.034404 -0.612743
v  -0.195090 0.034404 -1.022688
v  -0.214451 0.123825 -0.612743
v  -0.214451 0.123825 -0.986548
v  -0.214451 0.123825 -0.199998
v  -0.214451 0.123825 0.212748
v  -0.214451 0.123825 0.625493
v  -0.214451 0.123825 0.963810
v  -0.171558 0.099060 1.012368
v  -0.171558 0.099060 0.625493
v  -0.171558 0.099060 0.212748
v  -0.171558 0.099060 -0.199998
v  -0.171558 0.099060 -0.612743
v  -0.171558 0.099060 -1.013213
v  -0.159167 0.189710 -0.612743
v  -0.159167 0.189710 -1.012700
v  -0.159167 0.189710 -0.199998
v  -0.159167 0.189710 0.212748
v  -0.159167 0.189710 0.625493
v  -0.159167 0.189710 1.029373
v  -0.127330 0.151768 1.034187
v  -0.127330 0.151768 0.625493
v  -0.127330 0.151768 0.212748
v  -0.127330 0.151768 -0.199998
v  -0.127330 0.151768 -0.612743
v  -0.127330 0.151768 -1.013395
v  -0.084683 0.232713 -0.612743
v  -0.084683 0.232713 -1.020360
v  -0.084683 0.232713 -0.199998
v  -0.084683 0.232713 0.212748
v  -0.084683 0.232713 0.625493
v  -0.084683 0.232713 1.065951
v  -0.067743 0.186171 1.064770
v  -0.067743 0.186171 0.625493
v  -0.067743 0.186171 0.212748
v  -0.067743 0.186171 -0.199998
v  -0.067743 0.186171 -0.612743
v  -0.067743 0.186171 -1.024955
# 216 vertices

vn 0.002814 0.999996 -0.000000
vn -0.000000 1.000000 0.000000
vn 0.342021 0.939692 0.000000
vn 0.364167 0.931334 -0.000000
vn -0.000000 1.000000 -0.000000
vn 0.342021 0.939692 -0.000000
vn 0.000236 1.000000 0.000336
vn 0.341805 0.939771 0.000518
vn 0.002620 0.999997 -0.000000
vn 0.313296 0.949654 0.001888
vn -0.077162 -0.002973 0.997014
vn -0.166761 -0.104731 0.980419
vn 0.289601 0.278225 0.915818
vn 0.346927 0.343598 0.872687
vn -0.020870 -0.999782 -0.000000
vn 0.000000 -1.000000 0.000000
vn -0.342020 -0.939693 0.000000
vn -0.335716 -0.941963 -0.000000
vn 0.000000 -1.000000 -0.000000
vn -0.342020 -0.939693 -0.000000
vn -0.033094 -0.999452 -0.000000
vn -0.373763 -0.927524 -0.000000
vn -0.161437 0.477698 -0.863564
vn -0.087194 0.351489 -0.932123
vn -0.034851 0.630563 -0.775355
vn -0.056938 0.654572 -0.753852
vn 0.642788 0.766044 -0.000000
vn 0.667965 0.744193 -0.000000
vn 0.642788 0.766044 0.000000
vn 0.609720 0.792614 0.002207
vn 0.415667 0.278893 0.865702
vn 0.478774 0.271768 0.834816
vn -0.642788 -0.766044 -0.000000
vn -0.628393 -0.777896 -0.000000
vn -0.660394 -0.750919 -0.000000
vn 0.113676 0.460483 -0.880360
vn 0.133069 0.407806 -0.903320
vn 0.866025 0.500000 -0.000000
vn 0.877264 0.480008 -0.000000
vn 0.859125 0.511766 0.000000
vn 0.643254 0.205824 0.737469
vn 0.644076 0.223430 0.731605
vn -0.866025 -0.500000 -0.000000
vn -0.859463 -0.511199 -0.000000
vn -0.866026 -0.500000 -0.000000
vn -0.866969 -0.498362 -0.000000
vn 0.233695 0.381192 -0.894471
vn 0.157675 0.305576 -0.939022
vn 0.984808 0.173648 -0.000000
vn 0.986531 0.163575 -0.000000
vn 0.988745 0.149608 -0.000000
vn 0.597968 0.152008 0.786974
vn 0.496141 0.237971 0.834993
vn -0.984808 -0.173648 -0.000000
vn -0.984921 -0.173003 0.000000
vn -0.983066 -0.183249 -0.000000
vn -0.185074 -0.066725 -0.980457
vn -0.250485 -0.178829 -0.951461
vn 0.984808 -0.173648 -0.000000
vn 0.988987 -0.148005 -0.000000
vn 0.989706 -0.143114 -0.000000
vn 0.197047 -0.169146 0.965693
vn 0.140093 -0.174506 0.974639
vn -0.984808 0.173648 0.000000
vn -0.990755 0.135661 0.000000
vn -0.984808 0.173648 -0.000000
vn -0.985253 0.171103 -0.000000
vn -0.139181 -0.176495 -0.974412
vn -0.015634 -0.135987 -0.990587
vn 0.866025 -0.500000 -0.000000
vn 0.866906 -0.498471 -0.000000
vn 0.871801 -0.489861 -0.000000
vn 0.501467 -0.265233 0.823518
vn 0.543877 -0.385594 0.745329
vn -0.866025 0.500000 0.000000
vn -0.863096 0.505040 -0.000000
vn -0.866025 0.500000 -0.000000
vn -0.858744 0.512405 -0.000000
vn 0.293750 -0.115458 -0.948884
vn 0.393978 -0.089481 -0.914754
vn 0.642788 -0.766045 -0.000000
vn 0.629212 -0.777234 -0.000000
vn 0.642788 -0.766044 -0.000000
vn 0.603291 -0.797521 -0.000000
vn 0.561558 -0.484914 0.670456
vn 0.659510 -0.355537 0.662299
vn -0.642788 0.766044 -0.000000
vn -0.600951 0.799286 -0.000000
vn -0.618284 0.785954 -0.000000
vn 0.336930 -0.164289 -0.927085
vn 0.397941 -0.202678 -0.894743
vn 0.342020 -0.939693 -0.000000
vn 0.320541 -0.947235 -0.000000
vn 0.342020 -0.939693 0.000000
vn 0.310182 -0.950677 -0.000000
vn 0.223103 -0.368491 0.902463
vn 0.283632 -0.149266 0.947245
vn -0.342020 0.939693 -0.000000
vn -0.351946 0.936020 0.000000
vn -0.342020 0.939693 0.000000
vn -0.308061 0.951366 -0.000000
vn 0.406017 -0.400872 -0.821250
vn 0.438179 -0.425517 -0.791792
vn -0.000001 -1.000000 0.000000
vn -0.019258 -0.999815 -0.000000
vn -0.000001 -1.000000 -0.000000
vn 0.023062 -0.999734 -0.000000
vn -0.105310 -0.041419 0.993576
vn -0.126495 -0.033037 0.991417
vn 0.000001 1.000000 -0.000000
vn -0.021939 0.999759 0.000000
vn 0.000001 1.000000 0.000000
vn 0.013272 0.999912 0.000000
vn 0.126425 -0.452006 -0.883011
vn 0.093310 -0.433073 -0.896516
vn -0.342021 -0.939692 0.000000
vn -0.333293 -0.942823 -0.000000
vn -0.342021 -0.939692 -0.000000
vn -0.316992 -0.948428 -0.000000
vn -0.433751 -0.184048 0.882035
vn -0.395420 -0.182396 0.900208
vn 0.342020 0.939693 0.000000
vn 0.309158 0.951011 0.000000
vn 0.342020 0.939693 -0.000000
vn 0.319149 0.947705 0.000000
vn -0.223064 -0.380973 -0.897275
vn -0.227233 -0.322482 -0.918896
vn -0.642787 -0.766045 -0.000000
vn -0.636504 -0.771274 -0.000000
vn -0.642787 -0.766045 0.000000
vn -0.628586 -0.777740 -0.000000
vn -0.269157 0.030725 0.962606
vn -0.172914 0.075275 0.982056
vn 0.642787 0.766045 0.000000
vn 0.614529 0.788894 -0.000000
vn 0.642787 0.766045 -0.000000
vn 0.605008 0.796220 -0.000000
vn -0.260617 -0.114917 -0.958579
vn -0.229163 0.098897 -0.968351
vn -0.839635 -0.543151 -0.000000
vn -0.866025 -0.500000 0.000000
vn -0.856303 -0.516473 0.000000
vn -0.157331 0.161837 0.974195
vn -0.108552 0.161058 0.980957
vn 0.866026 0.500000 -0.000000
vn 0.852148 0.523300 -0.000000
vn 0.837959 0.545733 -0.000000
vn 0.006132 0.510932 -0.859599
vn 0.009678 0.606985 -0.794654
vn -0.972893 -0.231255 -0.000000
vn -0.983209 -0.182481 0.000000
vn -0.015815 0.076591 0.996937
vn -0.004331 0.077664 0.996970
vn 0.982856 0.184372 -0.000000
vn 0.976314 0.216357 -0.000000
vn -0.219350 0.456410 -0.862308
vn -0.297213 0.381570 -0.875254
vn -0.989155 0.146876 -0.000000
vn -0.988260 0.152783 -0.000000
vn -0.044951 -0.119582 0.991806
vn -0.186216 0.058953 0.980739
vn 0.982330 -0.187157 -0.000000
vn 0.988833 -0.149027 -0.000000
vn -0.415732 0.293714 -0.860755
vn -0.434017 0.277983 -0.856945
vn -0.866026 0.500000 -0.000000
vn -0.860919 0.508742 -0.000000
vn -0.858565 0.512705 -0.000000
vn -0.562649 0.248242 0.788544
vn -0.600871 0.251798 0.758651
vn 0.849317 -0.527883 -0.000000
vn 0.869609 -0.493741 -0.000000
vn -0.457889 0.171099 -0.872389
vn -0.374987 0.164909 -0.912244
vn -0.624949 0.780665 -0.000000
vn -0.642788 0.766045 -0.000000
vn -0.592371 0.805665 -0.000000
vn -0.479735 -0.168711 0.861041
vn -0.449451 -0.262932 0.853734
vn 0.612194 -0.790708 -0.000000
vn 0.635852 -0.771811 -0.000000
vn -0.153311 -0.004153 -0.988169
vn -0.065281 -0.008101 -0.997834
vn -0.336267 0.941767 -0.000000
vn -0.304127 0.952632 -0.000000
vn -0.320163 -0.145154 0.936176
vn -0.318183 -0.134987 0.938370
vn 0.302370 -0.953191 -0.000000
vn 0.319336 -0.947642 -0.000000
vn -0.093535 0.040848 -0.994778
vn -0.169777 0.112367 -0.979055
# 191 vertex normals

o Cookies1
g Cookies1
s 2
f 1//1 2//2 3//3 
f 3//3 4//4 1//1 
f 2//2 5//5 6//6 
f 6//6 3//3 2//2 
f 5//5 7//5 8//6 
f 8//6 6//6 5//5 
f 7//5 9//7 10//8 
f 10//8 8//6 7//5 
f 9//7 11//9 12//10 
f 12//10 10//8 9//7 
s 4
f 11//11 13//12 14//13 
f 14//13 12//14 11//11 
s 2
f 13//15 15//16 16//17 
f 16//17 14//18 13//15 
f 15//16 17//19 18//20 
f 18//20 16//17 15//16 
f 17//19 19//19 20//20 
f 20//20 18//20 17//19 
f 19//19 21//16 22//20 
f 22//20 20//20 19//19 
f 21//16 23//21 24//22 
f 24//22 22//20 21//16 
s 4
f 23//23 1//24 4//25 
f 4//25 24//26 23//23 
s 2
f 4//4 3//3 25//27 
f 25//27 26//28 4//4 
f 3//3 6//6 27//27 
f 27//27 25//27 3//3 
f 6//6 8//6 28//27 
f 28//27 27//27 6//6 
f 8//6 10//8 29//29 
f 29//29 28//27 8//6 
f 10//8 12//10 30//30 
f 30//30 29//29 10//8 
s 4
f 12//14 14//13 31//31 
f 31//31 30//32 12//14 
s 2
f 14//18 16//17 32//33 
f 32//33 31//34 14//18 
f 16//17 18//20 33//33 
f 33//33 32//33 16//17 
f 18//20 20//20 34//33 
f 34//33 33//33 18//20 
f 20//20 22//20 35//33 
f 35//33 34//33 20//20 
f 22//20 24//22 36//35 
f 36//35 35//33 22//20 
s 4
f 24//26 4//25 26//36 
f 26//36 36//37 24//26 
s 2
f 26//28 25//27 37//38 
f 37//38 38//39 26//28 
f 25//27 27//27 39//38 
f 39//38 37//38 25//27 
f 27//27 28//27 40//38 
f 40//38 39//38 27//27 
f 28//27 29//29 41//38 
f 41//38 40//38 28//27 
f 29//29 30//30 42//40 
f 42//40 41//38 29//29 
s 4
f 30//32 31//31 43//41 
f 43//41 42//42 30//32 
s 2
f 31//34 32//33 44//43 
f 44//43 43//44 31//34 
f 32//33 33//33 45//45 
f 45//45 44//43 32//33 
f 33//33 34//33 46//43 
f 46//43 45//45 33//33 
f 34//33 35//33 47//45 
f 47//45 46//43 34//33 
f 35//33 36//35 48//46 
f 48//46 47//45 35//33 
s 4
f 36//37 26//36 38//47 
f 38//47 48//48 36//37 
s 2
f 38//39 37//38 49//49 
f 49//49 50//50 38//39 
f 37//38 39//38 51//49 
f 51//49 49//49 37//38 
f 39//38 40//38 52//49 
f 52//49 51//49 39//38 
f 40//38 41//38 53//49 
f 53//49 52//49 40//38 
f 41//38 42//40 54//51 
f 54//51 53//49 41//38 
s 4
f 42//42 43//41 55//52 
f 55//52 54//53 42//42 
s 2
f 43//44 44//43 56//54 
f 56//54 55//55 43//44 
f 44//43 45//45 57//54 
f 57//54 56//54 44//43 
f 45//45 46//43 58//54 
f 58//54 57//54 45//45 
f 46//43 47//45 59//54 
f 59//54 58//54 46//43 
f 47//45 48//46 60//56 
f 60//56 59//54 47//45 
s 4
f 48//48 38//47 50//57 
f 50//57 60//58 48//48 
s 2
f 50//50 49//49 61//59 
f 61//59 62//60 50//50 
f 49//49 51//49 63//59 
f 63//59 61//59 49//49 
f 51//49 52//49 64//59 
f 64//59 63//59 51//49 
f 52//49 53//49 65//59 
f 65//59 64//59 52//49 
f 53//49 54//51 66//61 
f 66//61 65//59 53//49 
s 4
f 54//53 55//52 67//62 
f 67//62 66//63 54//53 
s 2
f 55//55 56//54 68//64 
f 68//64 67//65 55//55 
f 56//54 57//54 69//66 
f 69//66 68//64 56//54 
f 57//54 58//54 70//66 
f 70//66 69//66 57//54 
f 58//54 59//54 71//66 
f 71//66 70//66 58//54 
f 59//54 60//56 72//67 
f 72//67 71//66 59//54 
s 4
f 60//58 50//57 62//68 
f 62//68 72//69 60//58 
s 2
f 62//60 61//59 73//70 
f 73//70 74//71 62//60 
f 61//59 63//59 75//70 
f 75//70 73//70 61//59 
f 63//59 64//59 76//70 
f 76//70 75//70 63//59 
f 64//59 65//59 77//70 
f 77//70 76//70 64//59 
f 65//59 66//61 78//72 
f 78//72 77//70 65//59 
s 4
f 66//63 67//62 79//73 
f 79//73 78//74 66//63 
s 2
f 67//65 68//64 80//75 
f 80//75 79//76 67//65 
f 68//64 69//66 81//77 
f 81//77 80//75 68//64 
f 69//66 70//66 82//77 
f 82//77 81//77 69//66 
f 70//66 71//66 83//77 
f 83//77 82//77 70//66 
f 71//66 72//67 84//78 
f 84//78 83//77 71//66 
s 4
f 72//69 62//68 74//79 
f 74//79 84//80 72//69 
s 2
f 74//71 73//70 85//81 
f 85//81 86//82 74//71 
f 73//70 75//70 87//83 
f 87//83 85//81 73//70 
f 75//70 76//70 88//83 
f 88//83 87//83 75//70 
f 76//70 77//70 89//83 
f 89//83 88//83 76//70 
f 77//70 78//72 90//84 
f 90//84 89//83 77//70 
s 4
f 78//74 79//73 91//85 
f 91//85 90//86 78//74 
s 2
f 79//76 80//75 92//87 
f 92//87 91//88 79//76 
f 80//75 81//77 93//87 
f 93//87 92//87 80//75 
f 81//77 82//77 94//87 
f 94//87 93//87 81//77 
f 82//77 83//77 95//87 
f 95//87 94//87 82//77 
f 83//77 84//78 96//89 
f 96//89 95//87 83//77 
s 4
f 84//80 74//79 86//90 
f 86//90 96//91 84//80 
s 2
f 86//82 85//81 97//92 
f 97//92 98//93 86//82 
f 85//81 87//83 99//92 
f 99//92 97//92 85//81 
f 87//83 88//83 100//92 
f 100//92 99//92 87//83 
f 88//83 89//83 101//94 
f 101//94 100//92 88//83 
f 89//83 90//84 102//95 
f 102//95 101//94 89//83 
s 4
f 90//86 91//85 103//96 
f 103//96 102//97 90//86 
s 2
f 91//88 92//87 104//98 
f 104//98 103//99 91//88 
f 92//87 93//87 105//98 
f 105//98 104//98 92//87 
f 93//87 94//87 106//100 
f 106//100 105//98 93//87 
f 94//87 95//87 107//98 
f 107//98 106//100 94//87 
f 95//87 96//89 108//101 
f 108//101 107//98 95//87 
s 4
f 96//91 86//90 98//102 
f 98//102 108//103 96//91 
s 2
f 98//93 97//92 109//104 
f 109//104 110//105 98//93 
f 97//92 99//92 111//106 
f 111//106 109//104 97//92 
f 99//92 100//92 112//106 
f 112//106 111//106 99//92 
f 100//92 101//94 113//106 
f 113//106 112//106 100//92 
f 101//94 102//95 114//107 
f 114//107 113//106 101//94 
s 4
f 102//97 103//96 115//108 
f 115//108 114//109 102//97 
s 2
f 103//99 104//98 116//110 
f 116//110 115//111 103//99 
f 104//98 105//98 117//110 
f 117//110 116//110 104//98 
f 105//98 106//100 118//112 
f 118//112 117//110 105//98 
f 106//100 107//98 119//110 
f 119//110 118//112 106//100 
f 107//98 108//101 120//113 
f 120//113 119//110 107//98 
s 4
f 108//103 98//102 110//114 
f 110//114 120//115 108//103 
s 2
f 110//105 109//104 121//116 
f 121//116 122//117 110//105 
f 109//104 111//106 123//118 
f 123//118 121//116 109//104 
f 111//106 112//106 124//118 
f 124//118 123//118 111//106 
f 112//106 113//106 125//118 
f 125//118 124//118 112//106 
f 113//106 114//107 126//119 
f 126//119 125//118 113//106 
s 4
f 114//109 115//108 127//120 
f 127//120 126//121 114//109 
s 2
f 115//111 116//110 128//122 
f 128//122 127//123 115//111 
f 116//110 117//110 129//124 
f 129//124 128//122 116//110 
f 117//110 118//112 130//124 
f 130//124 129//124 117//110 
f 118//112 119//110 131//124 
f 131//124 130//124 118//112 
f 119//110 120//113 132//125 
f 132//125 131//124 119//110 
s 4
f 120//115 110//114 122//126 
f 122//126 132//127 120//115 
s 2
f 122//117 121//116 133//128 
f 133//128 134//129 122//117 
f 121//116 123//118 135//128 
f 135//128 133//128 121//116 
f 123//118 124//118 136//128 
f 136//128 135//128 123//118 
f 124//118 125//118 137//130 
f 137//130 136//128 124//118 
f 125//118 126//119 138//131 
f 138//131 137//130 125//118 
s 4
f 126//121 127//120 139//132 
f 139//132 138//133 126//121 
s 2
f 127//123 128//122 140//134 
f 140//134 139//135 127//123 
f 128//122 129//124 141//136 
f 141//136 140//134 128//122 
f 129//124 130//124 142//136 
f 142//136 141//136 129//124 
f 130//124 131//124 143//136 
f 143//136 142//136 130//124 
f 131//124 132//125 144//137 
f 144//137 143//136 131//124 
s 4
f 132//127 122//126 134//138 
f 134//138 144//139 132//127 
s 2
f 134//129 133//128 145//43 
f 145//43 146//140 134//129 
f 133//128 135//128 147//43 
f 147//43 145//43 133//128 
f 135//128 136//128 148//43 
f 148//43 147//43 135//128 
f 136//128 137//130 149//141 
f 149//141 148//43 136//128 
f 137//130 138//131 150//142 
f 150//142 149//141 137//130 
s 4
f 138//133 139//132 151//143 
f 151//143 150//144 138//133 
s 2
f 139//135 140//134 152//145 
f 152//145 151//146 139//135 
f 140//134 141//136 153//145 
f 153//145 152//145 140//134 
f 141//136 142//136 154//145 
f 154//145 153//145 141//136 
f 142//136 143//136 155//145 
f 155//145 154//145 142//136 
f 143//136 144//137 156//147 
f 156//147 155//145 143//136 
s 4
f 144//139 134//138 146//148 
f 146//148 156//149 144//139 
s 2
f 146//140 145//43 157//54 
f 157//54 158//150 146//140 
f 145//43 147//43 159//54 
f 159//54 157//54 145//43 
f 147//43 148//43 160//54 
f 160//54 159//54 147//43 
f 148//43 149//141 161//54 
f 161//54 160//54 148//43 
f 149//141 150//142 162//151 
f 162//151 161//54 149//141 
s 4
f 150//144 151//143 163//152 
f 163//152 162//153 150//144 
s 2
f 151//146 152//145 164//49 
f 164//49 163//154 151//146 
f 152//145 153//145 165//49 
f 165//49 164//49 152//145 
f 153//145 154//145 166//49 
f 166//49 165//49 153//145 
f 154//145 155//145 167//49 
f 167//49 166//49 154//145 
f 155//145 156//147 168//155 
f 168//155 167//49 155//145 
s 4
f 156//149 146//148 158//156 
f 158//156 168//157 156//149 
s 2
f 158//150 157//54 169//66 
f 169//66 170//158 158//150 
f 157//54 159//54 171//66 
f 171//66 169//66 157//54 
f 159//54 160//54 172//66 
f 172//66 171//66 159//54 
f 160//54 161//54 173//66 
f 173//66 172//66 160//54 
f 161//54 162//151 174//159 
f 174//159 173//66 161//54 
s 4
f 162//153 163//152 175//160 
f 175//160 174//161 162//153 
s 2
f 163//154 164//49 176//59 
f 176//59 175//162 163//154 
f 164//49 165//49 177//59 
f 177//59 176//59 164//49 
f 165//49 166//49 178//59 
f 178//59 177//59 165//49 
f 166//49 167//49 179//59 
f 179//59 178//59 166//49 
f 167//49 168//155 180//163 
f 180//163 179//59 167//49 
s 4
f 168//157 158//156 170//164 
f 170//164 180//165 168//157 
s 2
f 170//158 169//66 181//166 
f 181//166 182//167 170//158 
f 169//66 171//66 183//77 
f 183//77 181//166 169//66 
f 171//66 172//66 184//77 
f 184//77 183//77 171//66 
f 172//66 173//66 185//77 
f 185//77 184//77 172//66 
f 173//66 174//159 186//168 
f 186//168 185//77 173//66 
s 4
f 174//161 175//160 187//169 
f 187//169 186//170 174//161 
s 2
f 175//162 176//59 188//70 
f 188//70 187//171 175//162 
f 176//59 177//59 189//70 
f 189//70 188//70 176//59 
f 177//59 178//59 190//70 
f 190//70 189//70 177//59 
f 178//59 179//59 191//70 
f 191//70 190//70 178//59 
f 179//59 180//163 192//172 
f 192//172 191//70 179//59 
s 4
f 180//165 170//164 182//173 
f 182//173 192//174 180//165 
s 2
f 182//167 181//166 193//87 
f 193//87 194//175 182//167 
f 181//166 183//77 195//87 
f 195//87 193//87 181//166 
f 183//77 184//77 196//176 
f 196//176 195//87 183//77 
f 184//77 185//77 197//87 
f 197//87 196//176 184//77 
f 185//77 186//168 198//177 
f 198//177 197//87 185//77 
s 4
f 186//170 187//169 199//178 
f 199//178 198//179 186//170 
s 2
f 187//171 188//70 200//83 
f 200//83 199//180 187//171 
f 188//70 189//70 201//83 
f 201//83 200//83 188//70 
f 189//70 190//70 202//83 
f 202//83 201//83 189//70 
f 190//70 191//70 203//83 
f 203//83 202//83 190//70 
f 191//70 192//172 204//181 
f 204//181 203//83 191//70 
s 4
f 192//174 182//173 194//182 
f 194//182 204//183 192//174 
s 2
f 194//175 193//87 205//98 
f 205//98 206//184 194//175 
f 193//87 195//87 207//98 
f 207//98 205//98 193//87 
f 195//87 196//176 208//98 
f 208//98 207//98 195//87 
f 196//176 197//87 209//100 
f 209//100 208//98 196//176 
f 197//87 198//177 210//185 
f 210//185 209//100 197//87 
s 4
f 198//179 199//178 211//186 
f 211//186 210//187 198//179 
s 2
f 199//180 200//83 212//92 
f 212//92 211//188 199//180 
f 200//83 201//83 213//92 
f 213//92 212//92 200//83 
f 201//83 202//83 214//92 
f 214//92 213//92 201//83 
f 202//83 203//83 215//94 
f 215//94 214//92 202//83 
f 203//83 204//181 216//189 
f 216//189 215//94 203//83 
s 4
f 204//183 194//182 206//190 
f 206//190 216//191 204//183 
s 2
f 206//184 205//98 2//2 
f 2//2 1//1 206//184 
f 205//98 207//98 5//5 
f 5//5 2//2 205//98 
f 207//98 208//98 7//5 
f 7//5 5//5 207//98 
f 208//98 209//100 9//7 
f 9//7 7//5 208//98 
f 209//100 210//185 11//9 
f 11//9 9//7 209//100 
s 4
f 210//187 211//186 13//12 
f 13//12 11//11 210//187 
s 2
f 211//188 212//92 15//16 
f 15//16 13//15 211//188 
f 212//92 213//92 17//19 
f 17//19 15//16 212//92 
f 213//92 214//92 19//19 
f 19//19 17//19 213//92 
f 214//92 215//94 21//16 
f 21//16 19//19 214//92 
f 215//94 216//189 23//21 
f 23//21 21//16 215//94 
s 4
f 216//191 206//190 1//24 
f 1//24 23//23 216//191 
# 432 faces

