# 3ds Max Wavefront OBJ Exporter v0.97b - (c)2007 guruware
# 创建的文件:07.05.2018 02:35:32

#
# object Foliage2
#

v  -0.485160 1.141693 -0.107955
v  0.485160 1.141693 -0.107955
v  0.485160 1.126001 0.127508
v  -0.485160 1.126001 0.127508
v  -0.485160 1.060821 -0.335992
v  0.485160 1.060821 -0.335992
v  -0.485160 0.887325 -0.506184
v  0.485160 0.887325 -0.506184
v  -0.485160 0.657647 -0.582434
v  0.485160 0.657647 -0.582434
v  -0.485160 0.417561 -0.553845
v  0.485160 0.417561 -0.553845
v  -0.485160 0.211281 -0.423150
v  0.485160 0.211281 -0.423151
v  -0.485160 0.083693 -0.219694
v  0.485160 0.083693 -0.219694
v  -0.485160 0.036318 0.029591
v  0.485160 0.036318 0.029591
v  -0.485160 0.012247 0.284894
v  0.485160 0.012247 0.284894
v  -0.485160 0.002210 0.526693
v  0.485160 0.002210 0.526693
v  -0.485160 0.000371 0.760607
v  0.485160 0.000371 0.760607
v  -0.485160 0.001128 1.000001
v  0.485160 0.001128 1.000001
v  0.485159 1.126001 0.127509
v  -0.485160 1.126001 0.127509
v  -0.485160 1.060820 -0.335991
v  0.485160 1.060820 -0.335991
v  -0.485160 0.887325 -0.506183
v  -0.485160 0.417561 -0.553844
v  0.485160 0.417561 -0.553844
v  0.485160 0.211281 -0.423150
v  0.485159 0.083693 -0.219694
v  0.485159 0.036318 0.029591
v  0.485159 0.012247 0.284894
v  -0.485160 0.002210 0.526694
v  0.485159 0.002210 0.526694
v  0.485159 0.000371 0.760607
v  0.485159 0.001128 1.000001
# 41 vertices

vn -0.000000 -0.955393 0.295338
vn -0.000000 -0.955393 0.295339
vn 0.000000 -0.982805 -0.184649
vn -0.000000 -0.531313 0.847175
vn 0.000000 -0.531313 0.847175
vn 0.000000 -0.224106 0.974565
vn 0.000000 -0.037492 0.999297
vn -0.000000 -0.037492 0.999297
vn -0.000000 0.131252 0.991349
vn 0.000000 0.131252 0.991349
vn 0.000000 0.359655 0.933085
vn 0.000000 0.715147 0.698974
vn -0.000000 0.715147 0.698974
vn -0.000000 0.930198 0.367058
vn -0.000000 0.982351 0.187047
vn 0.000000 0.982351 0.187047
vn 0.000000 0.997598 0.069273
vn 0.000000 0.999978 0.006625
vn -0.000000 0.999978 0.006624
vn -0.000000 0.999960 -0.008913
vn -0.000000 0.999960 -0.008914
vn 0.000000 0.955393 -0.295338
vn -0.000000 0.982805 0.184649
vn 0.000000 0.955393 -0.295339
vn 0.000000 0.531313 -0.847175
vn -0.000000 0.531313 -0.847175
vn -0.000000 0.224106 -0.974565
vn -0.000000 0.037492 -0.999297
vn 0.000000 0.037492 -0.999297
vn 0.000000 -0.131252 -0.991349
vn -0.000000 -0.131252 -0.991349
vn -0.000000 -0.359655 -0.933085
vn -0.000000 -0.715147 -0.698974
vn 0.000000 -0.715147 -0.698974
vn 0.000000 -0.930198 -0.367058
vn 0.000000 -0.982351 -0.187047
vn -0.000000 -0.982351 -0.187048
vn -0.000000 -0.997598 -0.069273
vn -0.000000 -0.999978 -0.006625
vn 0.000000 -0.999978 -0.006624
vn 0.000000 -0.999960 0.008913
vn 0.000000 -0.999960 0.008914
# 42 vertex normals

vt 0.916667 1.000000 0.000000
vt 0.916667 -0.000000 0.000000
vt 1.000000 -0.000000 0.000000
vt 1.000000 1.000000 0.000000
vt 0.833333 1.000000 0.000000
vt 0.833333 -0.000000 0.000000
vt 0.750000 1.000000 0.000000
vt 0.750000 -0.000000 0.000000
vt 0.666667 1.000000 0.000000
vt 0.666667 -0.000000 0.000000
vt 0.583333 1.000000 0.000000
vt 0.583333 -0.000000 0.000000
vt 0.500000 1.000000 0.000000
vt 0.500000 -0.000000 0.000000
vt 0.416667 1.000000 0.000000
vt 0.416667 -0.000000 0.000000
vt 0.333333 1.000000 0.000000
vt 0.333333 -0.000000 0.000000
vt 0.250000 1.000000 0.000000
vt 0.250000 -0.000000 0.000000
vt 0.166667 1.000000 0.000000
vt 0.166667 -0.000000 0.000000
vt 0.083333 1.000000 0.000000
vt 0.083333 -0.000000 0.000000
vt 0.000000 1.000000 0.000000
vt 0.000000 -0.000000 0.000000
# 26 texture coords

o Foliage2
g Foliage2
s 1
f 1/1/1 2/2/2 3/3/3 
f 3/3/3 4/4/3 1/1/1 
f 5/5/4 6/6/5 2/2/2 
f 2/2/2 1/1/1 5/5/4 
f 7/7/6 8/8/6 6/6/5 
f 6/6/5 5/5/4 7/7/6 
f 9/9/7 10/10/8 8/8/6 
f 8/8/6 7/7/6 9/9/7 
f 11/11/9 12/12/10 10/10/8 
f 10/10/8 9/9/7 11/11/9 
f 13/13/11 14/14/11 12/12/10 
f 12/12/10 11/11/9 13/13/11 
f 15/15/12 16/16/13 14/14/11 
f 14/14/11 13/13/11 15/15/12 
f 17/17/14 18/18/14 16/16/13 
f 16/16/13 15/15/12 17/17/14 
f 19/19/15 20/20/16 18/18/14 
f 18/18/14 17/17/14 19/19/15 
f 21/21/17 22/22/17 20/20/16 
f 20/20/16 19/19/15 21/21/17 
f 23/23/18 24/24/19 22/22/17 
f 22/22/17 21/21/17 23/23/18 
f 25/25/20 26/26/21 24/24/19 
f 24/24/19 23/23/18 25/25/20 
f 1/1/22 27/3/23 2/2/24 
f 27/3/23 1/1/22 28/4/23 
f 29/5/25 2/2/24 30/6/26 
f 2/2/24 29/5/25 1/1/22 
f 31/7/27 30/6/26 8/8/27 
f 30/6/26 31/7/27 29/5/25 
f 9/9/28 8/8/27 10/10/29 
f 8/8/27 9/9/28 31/7/27 
f 32/11/30 10/10/29 33/12/31 
f 10/10/29 32/11/30 9/9/28 
f 13/13/32 33/12/31 34/14/32 
f 33/12/31 13/13/32 32/11/30 
f 15/15/33 34/14/32 35/16/34 
f 34/14/32 15/15/33 13/13/32 
f 17/17/35 35/16/34 36/18/35 
f 35/16/34 17/17/35 15/15/33 
f 19/19/36 36/18/35 37/20/37 
f 36/18/35 19/19/36 17/17/35 
f 38/21/38 37/20/37 39/22/38 
f 37/20/37 38/21/38 19/19/36 
f 23/23/39 39/22/38 40/24/40 
f 39/22/38 23/23/39 38/21/38 
f 25/25/41 40/24/40 41/26/42 
f 40/24/40 25/25/41 23/23/39 
# 48 faces

