# 3ds Max Wavefront OBJ Exporter v0.97b - (c)2007 guruware
# 创建的文件:03.05.2018 09:09:30

#
# object Table
#

v  4.893373 0.000000 2.184000
v  -4.893373 0.000000 2.184000
v  -4.984000 0.000000 2.093373
v  -4.984000 0.000000 -2.093373
v  -4.893373 0.000000 -2.184000
v  4.893373 0.000000 -2.184000
v  4.984000 0.000000 -2.093373
v  4.984000 0.000000 2.093373
v  4.984000 0.100000 2.093373
v  4.984000 0.100000 -2.093373
v  4.893373 0.100000 -2.184000
v  -4.893373 0.100000 -2.184000
v  -4.984000 0.100000 -2.093373
v  -4.984000 0.100000 2.093373
v  -4.893373 0.100000 2.184000
v  4.893373 0.100000 2.184000
v  5.000000 0.016000 2.100000
v  5.000000 0.016000 -2.100000
v  5.000000 0.084000 -2.100000
v  5.000000 0.084000 2.100000
v  4.900000 0.016000 -2.200000
v  -4.900001 0.016000 -2.200000
v  -4.900001 0.084000 -2.200000
v  4.900000 0.084000 -2.200000
v  -5.000000 0.016000 -2.100000
v  -5.000000 0.016000 2.100000
v  -5.000000 0.084000 2.100000
v  -5.000000 0.084000 -2.100000
v  -4.900000 0.016000 2.200000
v  4.900001 0.016000 2.200000
v  4.900001 0.084000 2.200000
v  -4.900000 0.084000 2.200000
# 32 vertices

vn 0.000000 -1.000000 -0.000000
vn -0.000000 1.000000 0.000000
vn 0.000000 1.000000 -0.000000
vn 0.000000 1.000000 0.000000
vn 1.000000 0.000000 -0.000000
vn -0.000000 0.000000 -1.000000
vn -1.000000 0.000000 -0.000000
vn 0.000000 0.000000 1.000000
vn 0.707107 0.000000 -0.707107
vn 0.707108 0.000000 0.707105
vn -0.707108 0.000000 -0.707105
vn -0.707107 0.000000 0.707107
vn 0.000000 -0.707108 0.707106
vn -0.000000 -0.707118 0.707096
vn -0.707111 -0.707102 -0.000000
vn -0.707101 -0.707113 -0.000000
vn -0.000000 -0.707108 -0.707106
vn 0.000000 -0.707118 -0.707096
vn 0.707111 -0.707102 -0.000000
vn 0.707101 -0.707113 0.000000
vn 0.707101 0.707113 0.000000
vn 0.707111 0.707102 0.000000
vn -0.000000 0.707118 -0.707096
vn 0.000000 0.707107 -0.707106
vn -0.707101 0.707113 0.000000
vn -0.707111 0.707102 -0.000000
vn 0.000000 0.707118 0.707096
vn -0.000000 0.707107 0.707106
vn 0.499993 -0.707117 0.499993
vn 0.499999 -0.707110 0.499997
vn 0.499997 -0.707109 -0.500000
vn 0.499993 -0.707117 -0.499993
vn -0.499997 -0.707109 0.500000
vn -0.499993 -0.707117 0.499993
vn -0.499993 -0.707117 -0.499993
vn -0.499999 -0.707110 -0.499997
vn 0.499998 0.707109 0.499998
vn 0.499994 0.707117 0.499992
vn 0.499991 0.707117 -0.499994
vn 0.499998 0.707109 -0.499998
vn -0.499991 0.707117 0.499994
vn -0.499998 0.707110 0.499998
vn -0.499998 0.707109 -0.499998
vn -0.499994 0.707117 -0.499992
# 44 vertex normals

o Table
g Table
f 1//1 2//1 3//1 
f 3//1 4//1 5//1 
f 1//1 3//1 5//1 
f 5//1 6//1 7//1 
f 1//1 5//1 7//1 
f 8//1 1//1 7//1 
f 9//2 10//2 11//2 
f 11//3 12//3 13//3 
f 9//4 11//4 13//4 
f 13//2 14//2 15//2 
f 9//4 13//4 15//4 
f 16//3 9//3 15//3 
f 17//5 18//5 19//5 
f 19//5 20//5 17//5 
f 21//6 22//6 23//6 
f 23//6 24//6 21//6 
f 25//7 26//7 27//7 
f 27//7 28//7 25//7 
f 29//8 30//8 31//8 
f 31//8 32//8 29//8 
f 18//9 21//9 24//9 
f 24//9 19//9 18//9 
f 20//10 31//10 30//10 
f 30//10 17//10 20//10 
f 22//11 25//11 28//11 
f 28//11 23//11 22//11 
f 26//12 29//12 32//12 
f 32//12 27//12 26//12 
f 1//13 30//13 29//13 
f 29//14 2//14 1//14 
f 3//15 26//15 25//15 
f 25//16 4//16 3//16 
f 5//17 22//17 21//17 
f 21//18 6//18 5//18 
f 7//19 18//19 17//19 
f 17//20 8//20 7//20 
f 9//21 20//21 19//21 
f 19//22 10//22 9//22 
f 11//23 24//23 23//23 
f 23//24 12//24 11//24 
f 13//25 28//25 27//25 
f 27//26 14//26 13//26 
f 15//27 32//27 31//27 
f 31//28 16//28 15//28 
f 30//29 1//29 8//29 
f 8//30 17//30 30//30 
f 18//31 7//31 6//31 
f 6//32 21//32 18//32 
f 26//33 3//33 2//33 
f 2//34 29//34 26//34 
f 22//35 5//35 4//35 
f 4//36 25//36 22//36 
f 20//37 9//37 16//37 
f 16//38 31//38 20//38 
f 24//39 11//39 10//39 
f 10//40 19//40 24//40 
f 32//41 15//41 14//41 
f 14//42 27//42 32//42 
f 28//43 13//43 12//43 
f 12//44 23//44 28//44 
# 60 faces

